<svg width="16" height="16" viewBox="0 0 16 16" fill="none" xmlns="http://www.w3.org/2000/svg">
<path d="M8 11.25C9.38071 11.25 10.5 10.1307 10.5 8.75C10.5 7.36929 9.38071 6.25 8 6.25C6.61929 6.25 5.5 7.36929 5.5 8.75C5.5 10.1307 6.61929 11.25 8 11.25Z" fill="#4F4F4F"/>
<path d="M3.75 7.25C4.85457 7.25 5.75 6.35457 5.75 5.25C5.75 4.14543 4.85457 3.25 3.75 3.25C2.64543 3.25 1.75 4.14543 1.75 5.25C1.75 6.35457 2.64543 7.25 3.75 7.25Z" fill="#D4D6D8"/>
<path d="M12.25 7.25C13.3546 7.25 14.25 6.35457 14.25 5.25C14.25 4.14543 13.3546 3.25 12.25 3.25C11.1454 3.25 10.25 4.14543 10.25 5.25C10.25 6.35457 11.1454 7.25 12.25 7.25Z" fill="#4F4F4F"/>
<path d="M8 11.25C9.38071 11.25 10.5 10.1307 10.5 8.75C10.5 7.36929 9.38071 6.25 8 6.25C6.61929 6.25 5.5 7.36929 5.5 8.75C5.5 10.1307 6.61929 11.25 8 11.25Z" fill="#D4D6D8" stroke="#4F4F4F" stroke-linecap="round" stroke-linejoin="round"/>
<path d="M12.25 7.25001C12.8323 7.24903 13.4069 7.38415 13.9277 7.64458C14.4486 7.90501 14.9014 8.28355 15.25 8.75001" stroke="#4F4F4F" stroke-linecap="round" stroke-linejoin="round"/>
<path d="M0.75 8.75001C1.09862 8.28355 1.55142 7.90501 2.07229 7.64458C2.59315 7.38415 3.16766 7.24903 3.75 7.25001" stroke="#4F4F4F" stroke-linecap="round" stroke-linejoin="round"/>
<path d="M4.3999 13.5C4.72917 12.8257 5.2412 12.2574 5.87768 11.8599C6.51416 11.4623 7.24949 11.2516 7.9999 11.2516C8.75032 11.2516 9.48565 11.4623 10.1221 11.8599C10.7586 12.2574 11.2706 12.8257 11.5999 13.5" stroke="#4F4F4F" stroke-linecap="round" stroke-linejoin="round"/>
<path d="M3.75008 7.25C3.37048 7.25038 2.99861 7.14273 2.67792 6.93962C2.35723 6.73651 2.10097 6.44633 1.93907 6.10299C1.77717 5.75965 1.71633 5.37732 1.76365 5.00068C1.81097 4.62404 1.9645 4.26865 2.2063 3.97603C2.4481 3.6834 2.76818 3.46564 3.12915 3.34817C3.49011 3.2307 3.87705 3.21839 4.24476 3.31266C4.61247 3.40694 4.94575 3.60391 5.20567 3.88057C5.46558 4.15722 5.6414 4.50213 5.71258 4.875" stroke="#4F4F4F" stroke-linecap="round" stroke-linejoin="round"/>
<path d="M10.2876 4.875C10.3588 4.50213 10.5346 4.15722 10.7945 3.88057C11.0544 3.60391 11.3877 3.40694 11.7554 3.31266C12.1231 3.21839 12.5101 3.2307 12.871 3.34817C13.232 3.46564 13.5521 3.6834 13.7939 3.97603C14.0357 4.26865 14.1892 4.62404 14.2365 5.00068C14.2838 5.37732 14.223 5.75965 14.0611 6.10299C13.8992 6.44633 13.6429 6.73651 13.3223 6.93962C13.0016 7.14273 12.6297 7.25038 12.2501 7.25" fill="#D4D6D8"/>
<path d="M10.2876 4.875C10.3588 4.50213 10.5346 4.15722 10.7945 3.88057C11.0544 3.60391 11.3877 3.40694 11.7554 3.31266C12.1231 3.21839 12.5101 3.2307 12.871 3.34817C13.232 3.46564 13.5521 3.6834 13.7939 3.97603C14.0357 4.26865 14.1892 4.62404 14.2365 5.00068C14.2838 5.37732 14.223 5.75965 14.0611 6.10299C13.8992 6.44633 13.6429 6.73651 13.3223 6.93962C13.0016 7.14273 12.6297 7.25038 12.2501 7.25" stroke="#4F4F4F" stroke-linecap="round" stroke-linejoin="round"/>
</svg>
