<svg width="16" height="16" viewBox="0 0 16 16" fill="none" xmlns="http://www.w3.org/2000/svg">
<path d="M5.5 13.5C5.78962 13.5001 6.0731 13.4164 6.31618 13.259C6.55927 13.1015 6.75157 12.8771 6.86988 12.6127C6.98818 12.3483 7.02742 12.0554 6.98285 11.7692C6.93829 11.483 6.81183 11.2159 6.61875 11H13.6187C13.8118 11.2159 13.9383 11.483 13.9829 11.7692C14.0274 12.0554 13.9882 12.3483 13.8699 12.6127C13.7516 12.8771 13.5593 13.1015 13.3162 13.259C13.0731 13.4164 12.7896 13.5001 12.5 13.5H5.5Z" fill="#D4D6D8"/>
<path d="M12.5 11V4.00001C12.5008 3.8028 12.4626 3.60737 12.3875 3.42501C12.3124 3.24265 12.202 3.07696 12.0625 2.93751C11.9231 2.79806 11.7574 2.6876 11.575 2.61251C11.3926 2.53742 11.1972 2.49919 11 2.50001H2.5" stroke="#4F4F4F" stroke-linecap="round" stroke-linejoin="round"/>
<path d="M6.5 6.5H10.5" stroke="#4F4F4F" stroke-linecap="round" stroke-linejoin="round"/>
<path d="M6.5 8.5H10.5" stroke="#4F4F4F" stroke-linecap="round" stroke-linejoin="round"/>
<path d="M1.38125 4.99999C1.21934 4.81871 1.1039 4.60079 1.04489 4.365C0.985869 4.1292 0.985037 3.8826 1.04246 3.64642C1.09989 3.41023 1.21385 3.19154 1.37453 3.00917C1.53522 2.82679 1.73782 2.6862 1.96489 2.59949C2.19197 2.51278 2.43671 2.48255 2.67806 2.5114C2.91941 2.54025 3.15013 2.62732 3.35036 2.76512C3.55059 2.90291 3.71434 3.08731 3.82751 3.30242C3.94067 3.51753 3.99987 3.75693 4 3.99999V12C4.00013 12.2431 4.05933 12.4825 4.17249 12.6976C4.28566 12.9127 4.44941 13.0971 4.64964 13.2349C4.84987 13.3727 5.08059 13.4597 5.32194 13.4886C5.56329 13.5174 5.80803 13.4872 6.03511 13.4005C6.26218 13.3138 6.46478 13.1732 6.62547 12.9908C6.78615 12.8084 6.90011 12.5898 6.95754 12.3536C7.01496 12.1174 7.01413 11.8708 6.95511 11.635C6.8961 11.3992 6.78066 11.1813 6.61875 11H13.6187C13.8118 11.2159 13.9383 11.483 13.9829 11.7692C14.0274 12.0554 13.9882 12.3483 13.8699 12.6127C13.7516 12.8771 13.5593 13.1015 13.3162 13.259C13.0731 13.4164 12.7896 13.5001 12.5 13.5H5.5" stroke="#4F4F4F" stroke-linecap="round" stroke-linejoin="round"/>
</svg>
