<svg width="16" height="16" viewBox="0 0 16 16" fill="none" xmlns="http://www.w3.org/2000/svg">
<path d="M14.3501 6.62502L12.7313 5.72502C12.6198 5.48711 12.4881 5.25919 12.3376 5.04377L12.3688 3.18752C11.682 2.56162 10.8674 2.09246 9.98134 1.81252L8.39384 2.76252C8.13167 2.74377 7.8685 2.74377 7.60634 2.76252L6.01259 1.80627C5.12933 2.0914 4.31737 2.56238 3.63134 3.18752L3.66259 5.04377C3.51212 5.25919 3.38039 5.48711 3.26884 5.72502L1.64384 6.62502C1.44899 7.53156 1.45112 8.46938 1.65009 9.37502L3.26884 10.275C3.38172 10.5142 3.51338 10.7441 3.66259 10.9625L3.63134 12.8125C4.31815 13.4384 5.13278 13.9076 6.01884 14.1875L7.60634 13.2375C7.8685 13.2563 8.13167 13.2563 8.39384 13.2375L9.98759 14.1938C10.8708 13.9086 11.6828 13.4377 12.3688 12.8125L12.3376 10.9563C12.4881 10.7409 12.6198 10.5129 12.7313 10.275L14.3563 9.37502C14.5543 8.46882 14.5522 7.53032 14.3501 6.62502ZM8.00009 11C7.40674 11 6.82673 10.8241 6.33338 10.4944C5.84003 10.1648 5.45551 9.69625 5.22845 9.14807C5.00139 8.5999 4.94198 7.9967 5.05773 7.41475C5.17349 6.83281 5.45921 6.29826 5.87877 5.8787C6.29833 5.45915 6.83287 5.17342 7.41482 5.05767C7.99676 4.94191 8.59996 5.00132 9.14814 5.22839C9.69632 5.45545 10.1649 5.83997 10.4945 6.33331C10.8241 6.82666 11.0001 7.40668 11.0001 8.00002C11.0001 8.79567 10.684 9.55874 10.1214 10.1213C9.5588 10.684 8.79574 11 8.00009 11Z" fill="#D4D6D8"/>
<path d="M8 11C9.65685 11 11 9.65685 11 8C11 6.34315 9.65685 5 8 5C6.34315 5 5 6.34315 5 8C5 9.65685 6.34315 11 8 11Z" stroke="#4F4F4F" stroke-linecap="round" stroke-linejoin="round"/>
<path d="M12.3376 5.04377C12.4881 5.25919 12.6198 5.48711 12.7313 5.72502L14.3501 6.62502C14.5522 7.53032 14.5543 8.46882 14.3563 9.37502L12.7313 10.275C12.6198 10.5129 12.4881 10.7409 12.3376 10.9563L12.3688 12.8125C11.6828 13.4377 10.8708 13.9086 9.98759 14.1938L8.39384 13.2375C8.13167 13.2563 7.8685 13.2563 7.60634 13.2375L6.01884 14.1875C5.13278 13.9076 4.31815 13.4384 3.63134 12.8125L3.66259 10.9625C3.51338 10.7441 3.38172 10.5142 3.26884 10.275L1.65009 9.37502C1.45112 8.46938 1.44899 7.53156 1.64384 6.62502L3.26884 5.72502C3.38039 5.48711 3.51212 5.25919 3.66259 5.04377L3.63134 3.18752C4.31737 2.56238 5.12933 2.0914 6.01259 1.80627L7.60634 2.76252C7.8685 2.74377 8.13167 2.74377 8.39384 2.76252L9.98134 1.81252C10.8674 2.09246 11.682 2.56162 12.3688 3.18752L12.3376 5.04377Z" stroke="#4F4F4F" stroke-linecap="round" stroke-linejoin="round"/>
</svg>
